<mxfile host="app.diagrams.net" modified="2022-02-27T16:17:21.015Z" agent="5.0 (Windows NT 10.0; Win64; x64) AppleWebKit/537.36 (KHTML, like Gecko) Chrome/100.0.4867.0 Safari/537.36 Edg/100.0.1169.1" etag="IuCqg4-CQxUQ98HYQmC5" version="16.6.3" type="github">
  <diagram id="kgpKYQtTHZ0yAKxKKP6v" name="Page-1">
    <mxGraphModel dx="692" dy="451" grid="1" gridSize="10" guides="1" tooltips="1" connect="1" arrows="1" fold="1" page="1" pageScale="1" pageWidth="850" pageHeight="1100" math="0" shadow="0">
      <root>
        <mxCell id="0" />
        <mxCell id="1" parent="0" />
        <mxCell id="uwLOlBebRurgxs3dPctE-1" value="" style="rounded=0;whiteSpace=wrap;html=1;fontFamily=宋体;" parent="1" vertex="1">
          <mxGeometry x="120" y="120" width="320" height="80" as="geometry" />
        </mxCell>
        <mxCell id="uwLOlBebRurgxs3dPctE-2" value="数据管理服务" style="rounded=0;whiteSpace=wrap;html=1;fontFamily=宋体;" parent="1" vertex="1">
          <mxGeometry x="120" y="110" width="90" height="20" as="geometry" />
        </mxCell>
        <mxCell id="uwLOlBebRurgxs3dPctE-3" value="数据导入" style="rounded=0;whiteSpace=wrap;html=1;fontFamily=宋体;" parent="1" vertex="1">
          <mxGeometry x="130" y="140" width="90" height="20" as="geometry" />
        </mxCell>
        <mxCell id="uwLOlBebRurgxs3dPctE-4" value="数据存储" style="rounded=0;whiteSpace=wrap;html=1;fontFamily=宋体;" parent="1" vertex="1">
          <mxGeometry x="235" y="140" width="90" height="20" as="geometry" />
        </mxCell>
        <mxCell id="uwLOlBebRurgxs3dPctE-5" value="SDK通信" style="rounded=0;whiteSpace=wrap;html=1;fontFamily=宋体;" parent="1" vertex="1">
          <mxGeometry x="340" y="140" width="90" height="20" as="geometry" />
        </mxCell>
        <mxCell id="uwLOlBebRurgxs3dPctE-6" value="算法预标注" style="rounded=0;whiteSpace=wrap;html=1;fontFamily=宋体;" parent="1" vertex="1">
          <mxGeometry x="130" y="170" width="90" height="20" as="geometry" />
        </mxCell>
        <mxCell id="uwLOlBebRurgxs3dPctE-7" value="算法分析" style="rounded=0;whiteSpace=wrap;html=1;fontFamily=宋体;" parent="1" vertex="1">
          <mxGeometry x="235" y="170" width="90" height="20" as="geometry" />
        </mxCell>
        <mxCell id="uwLOlBebRurgxs3dPctE-8" value="数据导出" style="rounded=0;whiteSpace=wrap;html=1;fontFamily=宋体;" parent="1" vertex="1">
          <mxGeometry x="340" y="170" width="90" height="20" as="geometry" />
        </mxCell>
        <mxCell id="uwLOlBebRurgxs3dPctE-9" value="" style="rounded=0;whiteSpace=wrap;html=1;fontFamily=宋体;" parent="1" vertex="1">
          <mxGeometry x="120" y="250" width="320" height="50" as="geometry" />
        </mxCell>
        <mxCell id="uwLOlBebRurgxs3dPctE-10" value="任务管理服务" style="rounded=0;whiteSpace=wrap;html=1;fontFamily=宋体;" parent="1" vertex="1">
          <mxGeometry x="120" y="240" width="90" height="20" as="geometry" />
        </mxCell>
        <mxCell id="uwLOlBebRurgxs3dPctE-11" value="任务切分" style="rounded=0;whiteSpace=wrap;html=1;fontFamily=宋体;" parent="1" vertex="1">
          <mxGeometry x="130" y="270" width="90" height="20" as="geometry" />
        </mxCell>
        <mxCell id="uwLOlBebRurgxs3dPctE-12" value="任务分配" style="rounded=0;whiteSpace=wrap;html=1;fontFamily=宋体;" parent="1" vertex="1">
          <mxGeometry x="235" y="270" width="90" height="20" as="geometry" />
        </mxCell>
        <mxCell id="uwLOlBebRurgxs3dPctE-13" value="进度跟踪" style="rounded=0;whiteSpace=wrap;html=1;fontFamily=宋体;" parent="1" vertex="1">
          <mxGeometry x="340" y="270" width="90" height="20" as="geometry" />
        </mxCell>
        <mxCell id="uwLOlBebRurgxs3dPctE-17" value="" style="shape=flexArrow;endArrow=classic;html=1;rounded=0;fontFamily=宋体;exitX=0.5;exitY=1;exitDx=0;exitDy=0;entryX=0.5;entryY=0;entryDx=0;entryDy=0;width=9.655172413793103;endSize=4.117241379310345;endWidth=11.272294887039239;" parent="1" source="uwLOlBebRurgxs3dPctE-1" target="uwLOlBebRurgxs3dPctE-9" edge="1">
          <mxGeometry width="50" height="50" relative="1" as="geometry">
            <mxPoint x="500" y="250" as="sourcePoint" />
            <mxPoint x="550" y="200" as="targetPoint" />
          </mxGeometry>
        </mxCell>
        <mxCell id="uwLOlBebRurgxs3dPctE-18" value="预标注数据" style="rounded=0;whiteSpace=wrap;html=1;fontFamily=宋体;" parent="1" vertex="1">
          <mxGeometry x="240" y="210" width="80" height="20" as="geometry" />
        </mxCell>
        <mxCell id="uwLOlBebRurgxs3dPctE-21" value="" style="shape=flexArrow;endArrow=classic;html=1;rounded=0;fontFamily=宋体;width=9.655172413793103;endSize=4.117241379310345;endWidth=11.272294887039239;entryX=0.5;entryY=0;entryDx=0;entryDy=0;" parent="1" target="uwLOlBebRurgxs3dPctE-24" edge="1">
          <mxGeometry width="50" height="50" relative="1" as="geometry">
            <mxPoint x="280" y="300" as="sourcePoint" />
            <mxPoint x="260" y="350" as="targetPoint" />
          </mxGeometry>
        </mxCell>
        <mxCell id="uwLOlBebRurgxs3dPctE-20" value="任务下发" style="rounded=0;whiteSpace=wrap;html=1;fontFamily=宋体;" parent="1" vertex="1">
          <mxGeometry x="240" y="310" width="80" height="20" as="geometry" />
        </mxCell>
        <mxCell id="uwLOlBebRurgxs3dPctE-24" value="&lt;font style=&quot;font-size: 11px&quot;&gt;可视化路网标注工具&lt;/font&gt;" style="rounded=0;whiteSpace=wrap;html=1;fontFamily=宋体;dashed=1;" parent="1" vertex="1">
          <mxGeometry x="120" y="350" width="320" height="50" as="geometry" />
        </mxCell>
        <mxCell id="uwLOlBebRurgxs3dPctE-25" value="数据标注服务" style="rounded=0;whiteSpace=wrap;html=1;fontFamily=宋体;dashed=1;" parent="1" vertex="1">
          <mxGeometry x="120" y="340" width="90" height="20" as="geometry" />
        </mxCell>
        <mxCell id="uwLOlBebRurgxs3dPctE-30" value="" style="rounded=0;whiteSpace=wrap;html=1;fontFamily=宋体;" parent="1" vertex="1">
          <mxGeometry x="490" y="290" width="110" height="110" as="geometry" />
        </mxCell>
        <mxCell id="uwLOlBebRurgxs3dPctE-31" value="质量管控服务" style="rounded=0;whiteSpace=wrap;html=1;fontFamily=宋体;" parent="1" vertex="1">
          <mxGeometry x="490" y="280" width="110" height="20" as="geometry" />
        </mxCell>
        <mxCell id="uwLOlBebRurgxs3dPctE-32" value="任务质量筛查&lt;span style=&quot;color: rgba(0 , 0 , 0 , 0) ; font-family: monospace ; font-size: 0px&quot;&gt;%3CmxGraphModel%3E%3Croot%3E%3CmxCell%20id%3D%220%22%2F%3E%3CmxCell%20id%3D%221%22%20parent%3D%220%22%2F%3E%3CmxCell%20id%3D%222%22%20value%3D%22%22%20style%3D%22rounded%3D0%3BwhiteSpace%3Dwrap%3Bhtml%3D1%3BfontFamily%3D%E5%AE%8B%E4%BD%93%3B%22%20vertex%3D%221%22%20parent%3D%221%22%3E%3CmxGeometry%20x%3D%22120%22%20y%3D%22350%22%20width%3D%22320%22%20height%3D%2250%22%20as%3D%22geometry%22%2F%3E%3C%2FmxCell%3E%3CmxCell%20id%3D%223%22%20value%3D%22%E6%95%B0%E6%8D%AE%E6%A0%87%E6%B3%A8%E6%9C%8D%E5%8A%A1%22%20style%3D%22rounded%3D0%3BwhiteSpace%3Dwrap%3Bhtml%3D1%3BfontFamily%3D%E5%AE%8B%E4%BD%93%3B%22%20vertex%3D%221%22%20parent%3D%221%22%3E%3CmxGeometry%20x%3D%22120%22%20y%3D%22340%22%20width%3D%2290%22%20height%3D%2220%22%20as%3D%22geometry%22%2F%3E%3C%2FmxCell%3E%3CmxCell%20id%3D%224%22%20value%3D%22%E5%8F%AF%E8%A7%86%E5%8C%96%E5%B1%95%E7%A4%BA%22%20style%3D%22rounded%3D0%3BwhiteSpace%3Dwrap%3Bhtml%3D1%3BfontFamily%3D%E5%AE%8B%E4%BD%93%3B%22%20vertex%3D%221%22%20parent%3D%221%22%3E%3CmxGeometry%20x%3D%22130%22%20y%3D%22370%22%20width%3D%2290%22%20height%3D%2220%22%20as%3D%22geometry%22%2F%3E%3C%2FmxCell%3E%3CmxCell%20id%3D%225%22%20value%3D%22%E4%BA%BA%E5%B7%A5%E5%A4%8D%E6%A0%B8%22%20style%3D%22rounded%3D0%3BwhiteSpace%3Dwrap%3Bhtml%3D1%3BfontFamily%3D%E5%AE%8B%E4%BD%93%3B%22%20vertex%3D%221%22%20parent%3D%221%22%3E%3CmxGeometry%20x%3D%22235%22%20y%3D%22370%22%20width%3D%2290%22%20height%3D%2220%22%20as%3D%22geometry%22%2F%3E%3C%2FmxCell%3E%3CmxCell%20id%3D%226%22%20value%3D%22%E8%BD%A8%E8%BF%B9%E5%B7%A1%E8%88%AA%22%20style%3D%22rounded%3D0%3BwhiteSpace%3Dwrap%3Bhtml%3D1%3BfontFamily%3D%E5%AE%8B%E4%BD%93%3B%22%20vertex%3D%221%22%20parent%3D%221%22%3E%3CmxGeometry%20x%3D%22340%22%20y%3D%22370%22%20width%3D%2290%22%20height%3D%2220%22%20as%3D%22geometry%22%2F%3E%3C%2FmxCell%3E%3C%2Froot%3E%3C%2FmxGraphModel%3E&lt;/span&gt;" style="rounded=0;whiteSpace=wrap;html=1;fontFamily=宋体;" parent="1" vertex="1">
          <mxGeometry x="500" y="310" width="90" height="20" as="geometry" />
        </mxCell>
        <mxCell id="uwLOlBebRurgxs3dPctE-45" value="标注结果校正" style="rounded=0;whiteSpace=wrap;html=1;fontFamily=宋体;" parent="1" vertex="1">
          <mxGeometry x="500" y="340" width="90" height="20" as="geometry" />
        </mxCell>
        <mxCell id="uwLOlBebRurgxs3dPctE-46" value="标注结果合入" style="rounded=0;whiteSpace=wrap;html=1;fontFamily=宋体;" parent="1" vertex="1">
          <mxGeometry x="500" y="370" width="90" height="20" as="geometry" />
        </mxCell>
        <mxCell id="uwLOlBebRurgxs3dPctE-47" value="" style="rounded=0;whiteSpace=wrap;html=1;fontFamily=宋体;" parent="1" vertex="1">
          <mxGeometry x="490" y="120" width="110" height="110" as="geometry" />
        </mxCell>
        <mxCell id="uwLOlBebRurgxs3dPctE-48" value="用户管理服务" style="rounded=0;whiteSpace=wrap;html=1;fontFamily=宋体;" parent="1" vertex="1">
          <mxGeometry x="490" y="110" width="110" height="20" as="geometry" />
        </mxCell>
        <mxCell id="uwLOlBebRurgxs3dPctE-49" value="用户鉴权" style="rounded=0;whiteSpace=wrap;html=1;fontFamily=宋体;" parent="1" vertex="1">
          <mxGeometry x="500" y="140" width="90" height="20" as="geometry" />
        </mxCell>
        <mxCell id="uwLOlBebRurgxs3dPctE-50" value="权限管理" style="rounded=0;whiteSpace=wrap;html=1;fontFamily=宋体;" parent="1" vertex="1">
          <mxGeometry x="500" y="170" width="90" height="20" as="geometry" />
        </mxCell>
        <mxCell id="uwLOlBebRurgxs3dPctE-51" value="增删查改" style="rounded=0;whiteSpace=wrap;html=1;fontFamily=宋体;" parent="1" vertex="1">
          <mxGeometry x="500" y="200" width="90" height="20" as="geometry" />
        </mxCell>
        <mxCell id="uwLOlBebRurgxs3dPctE-52" value="" style="shape=flexArrow;endArrow=classic;html=1;rounded=0;fontFamily=宋体;width=9.655172413793103;endSize=4.117241379310345;endWidth=11.272294887039239;entryX=-0.019;entryY=0.797;entryDx=0;entryDy=0;entryPerimeter=0;" parent="1" target="uwLOlBebRurgxs3dPctE-30" edge="1">
          <mxGeometry width="50" height="50" relative="1" as="geometry">
            <mxPoint x="440" y="378" as="sourcePoint" />
            <mxPoint x="480" y="375" as="targetPoint" />
          </mxGeometry>
        </mxCell>
        <mxCell id="uwLOlBebRurgxs3dPctE-53" value="结果" style="rounded=0;whiteSpace=wrap;html=1;fontFamily=宋体;horizontal=0;rotation=90;" parent="1" vertex="1">
          <mxGeometry x="440" y="365" width="40" height="20" as="geometry" />
        </mxCell>
        <mxCell id="uwLOlBebRurgxs3dPctE-58" value="" style="shape=flexArrow;endArrow=classic;html=1;rounded=0;fontFamily=宋体;width=9.655172413793103;endSize=4.117241379310345;endWidth=11.272294887039239;entryX=1;entryY=0.5;entryDx=0;entryDy=0;" parent="1" target="uwLOlBebRurgxs3dPctE-1" edge="1">
          <mxGeometry width="50" height="50" relative="1" as="geometry">
            <mxPoint x="490" y="310" as="sourcePoint" />
            <mxPoint x="497.90999999999985" y="387.6700000000001" as="targetPoint" />
            <Array as="points">
              <mxPoint x="470" y="310" />
              <mxPoint x="470" y="160" />
            </Array>
          </mxGeometry>
        </mxCell>
        <mxCell id="uwLOlBebRurgxs3dPctE-59" value="标注数据" style="rounded=0;whiteSpace=wrap;html=1;fontFamily=宋体;horizontal=0;rotation=90;" parent="1" vertex="1">
          <mxGeometry x="435" y="224" width="70" height="25" as="geometry" />
        </mxCell>
        <mxCell id="uwLOlBebRurgxs3dPctE-61" value="" style="shape=flexArrow;endArrow=classic;html=1;rounded=0;fontFamily=宋体;width=9.655172413793103;endSize=4.117241379310345;endWidth=11.272294887039239;entryX=0.5;entryY=0;entryDx=0;entryDy=0;" parent="1" edge="1">
          <mxGeometry width="50" height="50" relative="1" as="geometry">
            <mxPoint x="544.9999999999999" y="230" as="sourcePoint" />
            <mxPoint x="544.9999999999999" y="280" as="targetPoint" />
          </mxGeometry>
        </mxCell>
        <mxCell id="uwLOlBebRurgxs3dPctE-62" value="管理员用户" style="rounded=0;whiteSpace=wrap;html=1;fontFamily=宋体;" parent="1" vertex="1">
          <mxGeometry x="505" y="240" width="80" height="20" as="geometry" />
        </mxCell>
      </root>
    </mxGraphModel>
  </diagram>
</mxfile>
